<?xml version="1.0" standalone="no"?>
<!DOCTYPE svg PUBLIC "-//W3C//DTD SVG 20010904//EN"
 "http://www.w3.org/TR/2001/REC-SVG-20010904/DTD/svg10.dtd">
<svg version="1.0" xmlns="http://www.w3.org/2000/svg"
 width="700.000000pt" height="700.000000pt" viewBox="0 0 700.000000 700.000000"
 preserveAspectRatio="xMidYMid meet">
<metadata>
Created by potrace 1.11, written by Peter Selinger 2001-2013
</metadata>
<g transform="translate(0.000000,700.000000) scale(0.100000,-0.100000)"
fill="#000000" stroke="none">
<path d="M3250 6953 c-23 -8 -70 -62 -71 -81 -6 -63 27 -128 122 -247 158
-197 389 -333 634 -374 39 -7 83 -14 99 -17 71 -12 122 -58 111 -101 -11 -47
-90 -207 -138 -281 -103 -160 -331 -382 -391 -382 -30 0 -34 4 -113 115 -73
104 -95 126 -163 171 -67 45 -135 29 -168 -38 -11 -21 -19 -45 -18 -51 10 -49
22 -69 50 -86 39 -25 99 -86 123 -128 10 -17 32 -53 50 -81 l31 -50 -19 -31
c-10 -17 -31 -36 -46 -42 -50 -19 -226 -41 -328 -41 -88 0 -259 17 -276 27 -3
2 -21 7 -40 10 -47 8 -163 48 -231 79 -70 31 -74 50 -24 123 53 77 110 197
150 318 21 60 43 116 49 124 21 25 90 49 164 55 138 13 265 62 366 142 89 69
94 138 16 196 -44 33 -92 26 -161 -22 -68 -49 -144 -80 -190 -80 -43 0 -114
36 -138 70 -18 25 -20 44 -20 191 -1 90 -2 180 -4 199 -2 19 -4 45 -5 57 -2
36 -51 83 -93 90 -45 7 -94 -11 -111 -41 -8 -14 -12 -104 -14 -291 -2 -260 -3
-292 -17 -380 -14 -88 -19 -113 -38 -185 -26 -97 -72 -210 -117 -285 -34 -55
-40 -61 -89 -74 l-53 -14 -93 94 c-162 164 -268 312 -377 528 -68 135 -88 153
-155 145 -27 -3 -47 -13 -66 -34 -43 -47 -38 -88 28 -222 93 -185 217 -359
366 -513 80 -82 88 -101 72 -162 -6 -21 -138 -106 -204 -131 -14 -6 -46 -19
-70 -30 -52 -24 -202 -72 -245 -79 -16 -2 -47 -9 -67 -14 -65 -17 -158 -24
-308 -24 -165 1 -224 7 -366 41 -56 13 -113 24 -126 24 -68 0 -121 -99 -86
-163 24 -46 55 -60 208 -93 156 -33 452 -42 610 -17 290 45 550 143 782 296
117 77 134 76 299 -2 143 -68 243 -103 386 -136 157 -35 179 -59 206 -219 26
-155 9 -286 -50 -379 -58 -92 -15 -187 85 -187 78 0 167 144 189 305 8 62 7
200 -1 240 -3 17 -9 66 -12 110 -7 99 1 111 76 120 30 3 92 15 137 26 107 25
191 13 194 -29 9 -124 -6 -246 -47 -401 -90 -336 -213 -565 -408 -762 -108
-108 -208 -160 -276 -142 -54 14 -212 354 -250 537 -7 33 -13 91 -15 129 -3
83 -23 115 -81 136 -35 12 -44 12 -74 -3 -47 -22 -62 -48 -68 -124 -4 -57 -8
-65 -30 -73 -22 -8 -34 -4 -78 26 -66 46 -190 174 -272 283 -71 93 -92 110
-142 113 -61 5 -112 -48 -112 -116 0 -25 38 -83 133 -200 157 -194 340 -328
513 -375 l59 -17 47 -114 c92 -225 149 -315 293 -462 336 -343 321 -325 389
-464 64 -129 92 -205 103 -276 3 -20 14 -113 26 -205 11 -92 22 -180 24 -197
2 -16 9 -79 15 -140 6 -60 13 -128 16 -150 10 -67 13 -571 4 -585 -20 -32
-178 63 -268 159 -102 110 -227 324 -215 369 3 12 26 33 51 48 56 33 144 121
177 179 33 56 65 146 69 195 9 106 -150 156 -197 63 -8 -15 -22 -51 -31 -80
-17 -51 -80 -134 -117 -154 -31 -16 -55 -2 -74 44 -10 23 -27 60 -36 83 -10
22 -27 63 -38 91 -46 117 -129 255 -220 368 -49 60 -210 212 -265 250 -56 38
-100 95 -132 170 -14 32 -18 76 -19 225 -1 102 -5 199 -8 215 -3 17 -9 47 -11
67 -3 20 -12 56 -21 80 -8 24 -15 50 -15 59 0 26 -87 188 -139 258 -75 100
-133 153 -172 156 -82 7 -146 -75 -115 -147 6 -15 27 -44 46 -65 82 -90 96
-115 90 -156 -4 -20 -9 -39 -11 -40 -13 -10 -101 -47 -112 -47 -7 0 -17 -4
-22 -9 -14 -13 -169 -59 -261 -77 -106 -21 -197 -29 -331 -28 -110 0 -114 1
-142 28 -30 29 -35 43 -46 121 -3 22 -12 79 -21 127 -14 74 -15 93 -3 132 11
40 19 48 66 71 86 42 225 79 330 89 62 6 84 16 112 52 37 47 20 138 -30 165
-46 24 -247 -6 -394 -59 -90 -32 -143 -40 -201 -31 -9 1 -40 39 -69 83 -77
117 -164 202 -218 212 -61 11 -117 -35 -125 -102 -4 -42 -3 -45 54 -102 106
-104 140 -165 198 -356 43 -141 66 -250 66 -310 0 -36 -4 -46 -20 -51 -26 -8
-101 16 -210 68 -123 58 -188 50 -223 -26 -16 -35 -16 -59 0 -98 20 -45 233
-139 428 -188 159 -39 265 -53 437 -56 122 -2 391 23 416 39 5 3 23 8 41 11
45 8 217 63 269 86 111 50 131 37 130 -89 0 -240 -35 -290 -203 -290 -104 1
-190 -19 -278 -64 -56 -28 -66 -30 -136 -24 -42 3 -90 9 -108 15 -112 33 -371
32 -538 -3 -165 -35 -418 -142 -466 -197 -54 -62 -28 -160 52 -193 32 -13 37
-12 161 52 111 57 132 64 156 56 33 -12 48 -42 56 -114 7 -67 47 -216 67 -248
33 -52 120 -63 166 -20 44 41 47 67 19 169 -14 52 -28 123 -31 159 -4 36 -8
71 -10 77 -9 26 89 56 177 55 57 -1 125 -11 208 -30 l74 -17 4 -37 c8 -90 -71
-262 -198 -428 -158 -206 -308 -306 -532 -354 -59 -13 -92 -108 -57 -165 27
-44 55 -52 174 -46 82 4 107 2 118 -10 19 -18 55 -206 52 -271 -1 -27 -7 -67
-13 -89 -20 -75 -21 -102 -2 -133 20 -33 72 -55 111 -48 13 3 27 5 31 5 29 3
73 94 85 178 11 71 4 208 -16 298 -22 107 -19 180 10 236 23 46 114 135 135
133 8 -1 25 -2 39 -3 42 -2 57 -55 60 -201 1 -85 6 -132 15 -147 29 -45 103
-57 156 -24 47 29 58 73 50 205 -7 128 -20 185 -65 277 -23 48 -33 85 -37 141
-6 71 -5 79 23 130 70 128 103 275 83 372 -5 26 -2 33 20 44 41 22 134 40 191
37 201 -9 376 -91 560 -263 65 -61 79 -80 94 -129 30 -94 26 -157 -15 -237
-42 -81 -116 -177 -150 -192 -14 -6 -39 -14 -56 -17 -31 -6 -33 -4 -48 44 -23
68 -90 179 -146 238 -57 60 -102 73 -152 44 -73 -43 -75 -111 -4 -197 68 -84
112 -190 117 -281 4 -66 -50 -157 -120 -200 -79 -50 -191 -94 -279 -111 -59
-11 -82 -21 -99 -40 -32 -38 -38 -78 -16 -121 21 -45 53 -63 110 -63 42 0 43
-1 56 -47 13 -44 15 -141 4 -188 -21 -87 -110 -248 -172 -310 -46 -46 -83
-103 -79 -122 1 -7 2 -21 3 -30 5 -51 90 -99 143 -81 88 31 256 289 326 503
20 61 32 161 34 292 1 40 4 76 7 81 3 4 34 25 68 46 34 20 99 67 143 104 138
114 151 122 187 122 33 0 36 -3 67 -73 51 -110 79 -270 80 -451 l1 -149 -80
-19 c-141 -33 -225 -102 -225 -184 0 -37 6 -51 29 -75 16 -16 38 -29 48 -30
10 0 26 -2 35 -4 9 -2 40 12 68 30 51 33 80 36 80 9 0 -29 -46 -153 -87 -235
-26 -53 -66 -112 -103 -152 -70 -75 -81 -110 -55 -166 19 -44 49 -61 103 -61
33 0 45 8 119 85 71 74 90 102 142 208 106 217 151 411 156 667 3 198 -5 278
-44 440 -26 106 -61 198 -101 260 -44 69 -41 114 13 198 23 37 51 84 62 104
11 21 22 34 26 30 7 -7 40 -89 124 -312 26 -69 68 -167 92 -219 24 -51 61
-141 82 -200 50 -138 58 -153 161 -298 131 -182 205 -274 254 -316 l44 -38
-25 -62 c-90 -227 -249 -478 -430 -681 -24 -27 -42 -50 -40 -52 1 -2 44 -12
95 -24 155 -34 265 -46 494 -55 69 -2 130 -5 135 -6 47 -8 42 15 -17 81 -46
50 -110 162 -125 219 -6 21 -5 23 22 17 127 -28 161 -31 313 -30 121 1 161 6
245 28 205 54 415 186 548 346 26 30 31 32 49 21 210 -131 502 -172 732 -101
150 47 196 84 196 157 -1 88 -91 128 -193 84 -99 -43 -263 -56 -391 -32 -70
13 -196 87 -214 125 -9 20 -8 34 5 69 32 87 -14 167 -97 167 -39 0 -100 -39
-100 -63 0 -19 -79 -167 -118 -222 -65 -92 -144 -162 -205 -181 -132 -41 -176
32 -171 291 2 178 32 317 116 542 24 66 35 84 58 93 36 15 89 6 187 -30 76
-27 249 -77 303 -86 14 -3 31 -7 38 -9 7 -2 38 -7 70 -10 31 -4 71 -8 87 -10
17 -2 37 -4 45 -4 9 -1 24 -16 35 -33 75 -127 237 -232 435 -282 136 -34 209
-41 410 -39 141 1 179 5 264 27 122 32 229 80 262 119 41 48 25 137 -30 166
-44 23 -70 21 -143 -15 -63 -30 -177 -63 -220 -64 -7 0 -27 15 -44 32 -31 33
-31 33 -26 123 9 145 25 211 84 329 43 87 63 116 133 190 130 138 269 209 505
255 3 1 55 1 116 1 l111 0 34 34 c29 29 34 41 34 79 0 51 -32 92 -84 105 -35
10 -232 8 -286 -2 -382 -70 -673 -309 -806 -662 -35 -94 -56 -209 -59 -326 -2
-59 -7 -113 -12 -121 -11 -19 -69 -48 -85 -42 -7 2 -31 7 -52 10 -98 14 -282
101 -273 129 2 6 18 13 35 17 66 13 104 55 104 114 0 69 -66 117 -149 108 -28
-2 -50 1 -66 12 -22 14 -24 21 -21 83 4 94 19 156 59 237 40 79 92 147 147
190 78 61 91 134 34 191 -55 55 -107 43 -203 -46 -154 -145 -244 -353 -256
-589 -6 -104 -37 -117 -189 -82 -134 32 -227 74 -277 127 -42 44 -43 47 -38
96 8 61 33 94 206 265 l125 123 0 50 c1 62 -30 99 -91 107 -54 7 -90 -17 -222
-148 -34 -34 -58 -40 -94 -26 -18 7 -85 96 -111 145 -17 32 -17 35 1 55 43 52
61 64 112 75 173 39 396 201 548 399 30 39 73 84 95 100 36 25 52 28 129 31
l87 4 38 -39 c36 -37 37 -39 37 -116 -2 -196 83 -323 280 -421 112 -56 165
-66 203 -42 65 44 62 163 -7 197 -7 4 -48 23 -89 42 -126 60 -171 127 -164
250 7 131 15 142 128 168 l69 17 56 -38 c184 -124 361 -165 716 -164 235 0
337 15 481 69 102 38 142 67 150 110 9 49 -2 83 -38 117 -38 35 -79 37 -145 4
-26 -13 -73 -31 -104 -39 -53 -14 -56 -13 -81 8 -56 48 -61 242 -11 400 39
120 147 256 267 334 88 57 106 104 66 169 -21 34 -76 64 -107 59 -52 -9 -163
-88 -245 -174 -122 -129 -207 -306 -234 -486 -7 -53 -5 -198 4 -254 l9 -52
-45 -17 c-83 -31 -298 -9 -437 45 l-29 12 69 38 c39 20 76 48 83 62 26 49 1
123 -51 151 -42 22 -68 18 -159 -25 -124 -59 -128 -60 -168 -58 -62 4 -73 10
-64 39 13 52 13 179 -1 240 -30 127 -125 273 -190 291 -63 17 -130 -32 -139
-103 -4 -30 3 -47 40 -101 58 -84 75 -134 76 -215 1 -70 -21 -136 -66 -195
-29 -38 -115 -65 -205 -65 -51 0 -62 3 -79 25 -16 21 -18 32 -11 71 5 25 9 75
10 110 1 55 -2 69 -25 99 -26 33 -47 41 -96 36 -62 -7 -100 -56 -100 -130 0
-22 -5 -63 -11 -90 l-10 -50 -75 -17 c-94 -20 -226 -16 -317 12 -78 23 -212
111 -260 171 -10 13 -24 29 -31 36 -6 6 -26 33 -44 59 -44 64 -65 77 -120 74
-38 -2 -50 -8 -74 -36 -39 -47 -37 -88 9 -164 35 -58 213 -246 234 -246 5 0
26 -11 47 -25 76 -50 221 -99 330 -110 75 -8 89 -13 96 -31 10 -26 -25 -98
-69 -139 -159 -149 -311 -216 -423 -186 -26 6 -51 16 -55 20 -9 9 -11 100 -7
208 3 73 -14 107 -64 128 -40 17 -100 6 -128 -24 -27 -29 -37 -105 -33 -241 6
-230 80 -453 210 -634 64 -89 66 -97 66 -184 0 -63 -4 -75 -44 -143 -260 -445
-355 -880 -271 -1249 14 -65 14 -73 0 -95 -25 -39 -53 -39 -155 -3 l-94 34
-19 54 c-25 72 -18 184 17 300 14 47 28 99 31 115 3 17 9 46 14 65 12 50 30
173 37 260 13 153 5 581 -12 681 -2 13 -6 49 -9 79 -6 63 -34 295 -40 325 -2
11 -7 51 -11 89 -4 38 -8 79 -10 90 -2 12 -6 47 -10 80 -7 68 -31 132 -87 236
-70 131 -213 333 -307 433 l-36 39 25 16 c13 10 38 29 55 44 22 19 35 24 46
17 7 -5 22 -9 32 -9 21 0 20 1 101 -92 40 -46 69 -71 92 -77 73 -20 144 29
144 101 0 28 -29 92 -49 108 -18 14 -119 137 -124 152 -4 11 7 34 32 65 92
118 204 311 251 433 11 30 24 64 29 75 5 11 14 34 21 52 17 44 54 57 137 48
38 -5 79 -10 93 -11 32 -4 292 -6 305 -3 20 5 45 -13 66 -47 16 -26 21 -54 24
-126 1 -51 6 -104 9 -118 3 -14 8 -36 10 -50 14 -82 92 -247 132 -279 18 -14
41 -21 71 -21 38 0 50 5 79 34 27 27 34 42 34 73 0 21 -7 49 -15 63 -33 56
-63 128 -75 180 -18 76 -16 219 4 257 37 73 75 101 156 117 14 3 99 26 190 51
129 35 175 44 210 39 25 -3 48 -8 53 -11 4 -2 19 -6 33 -9 14 -3 71 -22 127
-43 193 -73 366 -98 653 -95 282 3 404 20 547 76 127 49 222 109 235 148 12
38 -2 98 -30 126 -40 41 -91 36 -175 -14 -144 -87 -259 -110 -566 -110 -238 0
-345 9 -462 39 -44 11 -80 21 -81 22 -1 1 -4 11 -7 22 -5 16 6 28 56 62 72 49
192 165 214 206 44 86 -58 188 -143 144 -16 -9 -54 -42 -85 -74 -64 -68 -139
-120 -248 -173 -124 -61 -141 -65 -205 -51 -54 12 -55 13 -74 64 -37 100 -56
208 -56 332 -1 116 7 215 19 247 9 24 69 52 96 45 139 -32 190 -39 286 -42
308 -10 549 78 693 252 58 70 61 120 10 176 -16 17 -32 22 -71 22 -47 0 -51
-2 -113 -65 -98 -101 -197 -145 -351 -157 -226 -18 -366 4 -394 62 -12 25 -12
32 5 63 26 48 142 171 217 230 34 27 95 68 135 92 75 44 102 77 97 120 -1 14
-3 30 -4 37 0 6 -15 25 -32 42 -44 45 -94 43 -181 -8 -291 -170 -512 -461
-594 -781 -27 -105 -41 -232 -38 -342 2 -131 9 -178 41 -297 32 -116 35 -172
9 -200 -11 -12 -46 -26 -91 -36 -72 -16 -80 -16 -123 13 -7 5 -19 44 -26 88
-25 139 -71 236 -157 329 -86 93 -165 114 -222 57 -24 -25 -29 -38 -29 -79 0
-46 3 -52 60 -110 64 -65 103 -137 121 -221 15 -72 15 -72 -19 -112 l-30 -35
-127 -2 c-114 -1 -206 6 -284 22 l-26 6 12 83 c11 89 12 260 2 336 -4 25 -16
76 -27 114 -21 75 -21 75 34 107 75 43 204 158 297 262 208 234 328 496 374
812 12 89 13 370 0 430 -8 42 -42 72 -92 83 -34 8 -47 6 -72 -9 -55 -33 -57
-43 -50 -255 4 -139 4 -139 -155 -138 -129 1 -201 15 -311 61 -136 57 -288
192 -365 323 -51 87 -99 115 -160 93z"/>
</g>
</svg>
